<svg width="100%" height="auto" viewBox="0.00 0.00 1189.42 548.00" xmlns="http://www.w3.org/2000/svg" xmlns:xlink="http://www.w3.org/1999/xlink"><g id="graph0" class="graph" transform="scale(1 1) rotate(0) translate(4 544)"><polygon fill="white" stroke="none" points="-4,4 -4,-544 1185.42,-544 1185.42,4 -4,4"/><g id="node1" class="node"><title>
        A
      </title><ellipse fill="none" stroke="black" cx="519.13" cy="-522" rx="69.78" ry="18"/><text text-anchor="middle" x="519.13" y="-516.95" font-family="Times,serif" font-size="14.00">
        Потребности, интересы
      </text></g><g id="node2" class="node"><title>
        B
      </title><ellipse fill="none" stroke="black" cx="386.13" cy="-450" rx="115.33" ry="18"/><text text-anchor="middle" x="386.13" y="-444.95" font-family="Times,serif" font-size="14.00">
        Материальные потребности и интересы
      </text></g><g id="edge1" class="edge"><title>
        A-&gt;B
      </title><path fill="none" stroke="black" d="M489.28,-505.29C471.15,-495.75 447.73,-483.42 427.8,-472.93"/><polygon fill="black" stroke="black" points="429.55,-469.9 419.07,-468.34 426.29,-476.09 429.55,-469.9"/></g><g id="node3" class="node"><title>
        C
      </title><ellipse fill="none" stroke="black" cx="653.13" cy="-450" rx="133.24" ry="18"/><text text-anchor="middle" x="653.13" y="-444.95" font-family="Times,serif" font-size="14.00">
        Нематериальные потребности и интересы
      </text></g><g id="edge2" class="edge"><title>
        A-&gt;C
      </title><path fill="none" stroke="black" d="M549.2,-505.29C567.34,-495.82 590.72,-483.6 610.72,-473.16"/><polygon fill="black" stroke="black" points="612.23,-476.31 619.48,-468.58 608.99,-470.11 612.23,-476.31"/></g><g id="node4" class="node"><title>
        D
      </title><ellipse fill="none" stroke="black" cx="386.13" cy="-378" rx="85.64" ry="18"/><text text-anchor="middle" x="386.13" y="-372.95" font-family="Times,serif" font-size="14.00">
        Материальная мотивация
      </text></g><g id="edge3" class="edge"><title>
        B-&gt;D
      </title><path fill="none" stroke="black" d="M386.13,-431.7C386.13,-424.41 386.13,-415.73 386.13,-407.54"/><polygon fill="black" stroke="black" points="389.63,-407.62 386.13,-397.62 382.63,-407.62 389.63,-407.62"/></g><g id="node5" class="node"><title>
        E
      </title><ellipse fill="none" stroke="black" cx="653.13" cy="-378" rx="103.56" ry="18"/><text text-anchor="middle" x="653.13" y="-372.95" font-family="Times,serif" font-size="14.00">
        Нематериальная мотивация
      </text></g><g id="edge4" class="edge"><title>
        C-&gt;E
      </title><path fill="none" stroke="black" d="M653.13,-431.7C653.13,-424.41 653.13,-415.73 653.13,-407.54"/><polygon fill="black" stroke="black" points="656.63,-407.62 653.13,-397.62 649.63,-407.62 656.63,-407.62"/></g><g id="node6" class="node"><title>
        F
      </title><ellipse fill="none" stroke="black" cx="85.13" cy="-162" rx="85.13" ry="18"/><text text-anchor="middle" x="85.13" y="-156.95" font-family="Times,serif" font-size="14.00">
        Созидающая мотивация
      </text></g><g id="edge5" class="edge"><title>
        D-&gt;F
      </title><path fill="none" stroke="black" d="M360,-360.39C344.02,-350.12 323.23,-336.53 305.13,-324 236.76,-276.66 158.6,-218.46 116.3,-186.61"/><polygon fill="black" stroke="black" points="118.64,-183.99 108.55,-180.76 114.42,-189.57 118.64,-183.99"/></g><g id="node7" class="node"><title>
        G
      </title><ellipse fill="none" stroke="black" cx="397.13" cy="-306" rx="83.08" ry="18"/><text text-anchor="middle" x="397.13" y="-300.95" font-family="Times,serif" font-size="14.00">
        Ростовщическая мотивация
      </text></g><g id="edge6" class="edge"><title>
        D-&gt;G
      </title><path fill="none" stroke="black" d="M388.85,-359.7C390.01,-352.32 391.39,-343.52 392.69,-335.25"/><polygon fill="black" stroke="black" points="396.11,-336.02 394.21,-325.6 389.2,-334.93 396.11,-336.02"/></g><g id="node8" class="node"><title>
        H
      </title><ellipse fill="none" stroke="black" cx="642.13" cy="-306" rx="69.26" ry="18"/><text text-anchor="middle" x="642.13" y="-300.95" font-family="Times,serif" font-size="14.00">
        Смыслы жизни
      </text></g><g id="edge7" class="edge"><title>
        E-&gt;H
      </title><path fill="none" stroke="black" d="M650.41,-359.7C649.25,-352.32 647.87,-343.52 646.57,-335.25"/><polygon fill="black" stroke="black" points="650.06,-334.93 645.05,-325.6 643.15,-336.02 650.06,-334.93"/></g><g id="node9" class="node"><title>
        I
      </title><ellipse fill="none" stroke="black" cx="861.13" cy="-306" rx="132.22" ry="18"/><text text-anchor="middle" x="861.13" y="-300.95" font-family="Times,serif" font-size="14.00">
        Социальное положение, статус в обществе
      </text></g><g id="edge8" class="edge"><title>
        E-&gt;I
      </title><path fill="none" stroke="black" d="M699.29,-361.46C729.62,-351.26 769.56,-337.82 802.17,-326.84"/><polygon fill="black" stroke="black" points="803.13,-330.21 811.49,-323.7 800.9,-323.58 803.13,-330.21"/></g><g id="node10" class="node"><title>
        J
      </title><ellipse fill="none" stroke="black" cx="273.13" cy="-90" rx="95.37" ry="18"/><text text-anchor="middle" x="273.13" y="-84.95" font-family="Times,serif" font-size="14.00">
        Оплата труда
      </text></g><g id="edge9" class="edge"><title>
        F-&gt;J
      </title><path fill="none" stroke="black" d="M125.92,-145.81C153.72,-135.46 190.77,-121.67 220.75,-110.5"/><polygon fill="black" stroke="black" points="221.87,-113.82 230.02,-107.05 219.43,-107.26 221.87,-113.82"/></g><g id="node11" class="node"><title>
        K
      </title><ellipse fill="none" stroke="black" cx="397.13" cy="-234" rx="83.08" ry="18"/><text text-anchor="middle" x="397.13" y="-228.95" font-family="Times,serif" font-size="14.00">
        Рента от имущества
      </text></g><g id="edge10" class="edge"><title>
        G-&gt;K
      </title><path fill="none" stroke="black" d="M397.13,-287.7C397.13,-280.41 397.13,-271.73 397.13,-263.54"/><polygon fill="black" stroke="black" points="400.63,-263.62 397.13,-253.62 393.63,-263.62 400.63,-263.62"/></g><g id="node12" class="node"><title>
        L
      </title><ellipse fill="none" stroke="black" cx="645.13" cy="-234" rx="116.35" ry="18"/><text text-anchor="middle" x="645.13" y="-228.95" font-family="Times,serif" font-size="14.00">
        Оценка личного труда
      </text></g><g id="edge11" class="edge"><title>
        H-&gt;L
      </title><path fill="none" stroke="black" d="M642.87,-287.7C643.18,-280.41 643.56,-271.73 643.91,-263.54"/><polygon fill="black" stroke="black" points="647.4,-263.76 644.33,-253.62 640.41,-263.46 647.4,-263.76"/></g><g id="node13" class="node"><title>
        M
      </title><ellipse fill="none" stroke="black" cx="858.13" cy="-234" rx="72.34" ry="18"/><text text-anchor="middle" x="858.13" y="-228.95" font-family="Times,serif" font-size="14.00">
        Престижность труда
      </text></g><g id="edge12" class="edge"><title>
        I-&gt;M
      </title><path fill="none" stroke="black" d="M860.39,-287.7C860.08,-280.41 859.7,-271.73 859.35,-263.54"/><polygon fill="black" stroke="black" points="862.85,-263.46 858.93,-253.62 855.86,-263.76 862.85,-263.46"/></g><g id="node14" class="node"><title>
        N
      </title><ellipse fill="none" stroke="black" cx="273.13" cy="-18" rx="223.83" ry="18"/><text text-anchor="middle" x="273.13" y="-12.95" font-family="Times,serif" font-size="14.00">
        Физическая жизнь, воспроизводство, комфорт, безопасность, развитие
      </text></g><g id="edge13" class="edge"><title>
        J-&gt;N
      </title><path fill="none" stroke="black" d="M267.22,-71.7C266.46,-64.41 266.22,-55.73 266.48,-47.54"/><polygon fill="black" stroke="black" points="269.97,-47.82 267.14,-37.61 262.99,-47.36 269.97,-47.82"/></g><g id="node15" class="node"><title>
        O
      </title><ellipse fill="none" stroke="black" cx="412.13" cy="-162" rx="223.83" ry="18"/><text text-anchor="middle" x="412.13" y="-156.95" font-family="Times,serif" font-size="14.00">
        Физическая жизнь, воспроизводство, комфорт, безопасность, развитие
      </text></g><g id="edge14" class="edge"><title>
        K-&gt;O
      </title><path fill="none" stroke="black" d="M400.84,-215.7C402.42,-208.32 404.3,-199.52 406.08,-191.25"/><polygon fill="black" stroke="black" points="409.48,-192.1 408.15,-181.58 402.63,-190.63 409.48,-192.1"/></g><g id="node16" class="node"><title>
        P
      </title><ellipse fill="none" stroke="black" cx="843.13" cy="-162" rx="159.34" ry="18"/><text text-anchor="middle" x="843.13" y="-156.95" font-family="Times,serif" font-size="14.00">
        Социальный (нематериальный) поощряющий пакет
      </text></g><g id="edge15" class="edge"><title>
        L-&gt;P
      </title><path fill="none" stroke="black" d="M690.06,-217.12C718.33,-207.12 755.09,-194.13 785.5,-183.37"/><polygon fill="black" stroke="black" points="786.28,-186.81 794.54,-180.18 783.94,-180.21 786.28,-186.81"/></g><g id="edge16" class="edge"><title>
        M-&gt;P
      </title><path fill="none" stroke="black" d="M854.42,-215.7C852.84,-208.32 850.96,-199.52 849.18,-191.25"/><polygon fill="black" stroke="black" points="852.63,-190.63 847.11,-181.58 845.79,-192.1 852.63,-190.63"/></g><g id="edge17" class="edge"><title>
        N-&gt;J
      </title><path fill="none" stroke="black" d="M279.03,-36.1C279.79,-43.37 280.04,-52.04 279.78,-60.24"/><polygon fill="black" stroke="black" points="276.29,-59.98 279.14,-70.19 283.28,-60.43 276.29,-59.98"/></g><g id="edge18" class="edge"><title>
        O-&gt;J
      </title><path fill="none" stroke="black" d="M378.13,-143.88C359.24,-134.36 335.56,-122.44 315.48,-112.33"/><polygon fill="black" stroke="black" points="317.21,-109.28 306.7,-107.91 314.06,-115.53 317.21,-109.28"/></g><g id="node17" class="node"><title>
        Q
      </title><ellipse fill="none" stroke="black" cx="599.13" cy="-90" rx="163.44" ry="18"/><text text-anchor="middle" x="599.13" y="-84.95" font-family="Times,serif" font-size="14.00">
        Традиции, культура, цивилизационная идентичность
      </text></g><g id="edge19" class="edge"><title>
        P-&gt;Q
      </title><path fill="none" stroke="black" d="M786.54,-144.76C750.79,-134.51 704.4,-121.2 666.72,-110.39"/><polygon fill="black" stroke="black" points="667.87,-107.08 657.29,-107.69 665.94,-113.81 667.87,-107.08"/></g><g id="node18" class="node"><title>
        R
      </title><ellipse fill="none" stroke="black" cx="981.13" cy="-90" rx="200.29" ry="18"/><text text-anchor="middle" x="981.13" y="-84.95" font-family="Times,serif" font-size="14.00">
        Социальные ценностные шкалы, формируемые обществом и государством
      </text></g><g id="edge20" class="edge"><title>
        P-&gt;R
      </title><path fill="none" stroke="black" d="M876.54,-144.05C894.79,-134.79 917.63,-123.21 937.3,-113.23"/><polygon fill="black" stroke="black" points="938.87,-116.36 946.2,-108.72 935.7,-110.12 938.87,-116.36"/></g></g></svg>
